# xmcd CD database file
#
# Track frame offsets:
#	150
#	21465
#	52315
#	93547
#	106172
#	119585
#	139610
#	173732
#	196160
#	226587
#
# Disc length: 3394 seconds
#
# Revision: 0
# Processed by: cddbd v1.4PL0 Copyright (c) Steve Scherf et al.
# Submitted via: CDex 1.50Beta7
#
DISCID=840d400a
DTITLE=Ismael Miranda - 27 Años de Trayectoria Musical (Live) CD 2
DYEAR=2002
DGENRE=Salsa
TTITLE0=Cipriano Armenteros
TTITLE1=Manuela No Me Pelea
TTITLE2=Maria Luisa
TTITLE3=Que Me Mate La Bebida
TTITLE4=Carcel Sin Rejas
TTITLE5=La Cama Vacia
TTITLE6=Arsenio
TTITLE7=Mi Madre
TTITLE8=Abran Paso
TTITLE9=Para Ismael Rivera
EXTD=YEAR: 2002
EXTT0=
EXTT1=
EXTT2=
EXTT3=
EXTT4=
EXTT5=
EXTT6=
EXTT7=
EXTT8=
EXTT9=
PLAYORDER=
